# xmcd
#
# Track frame offsets: 
#        150
#        17430
#        34577
#        50750
#        70810
#        87152
#        103257
#        116027
#        138377
#        157475
#        173982
#        194557
#
# Disc length: 2810 seconds
#
# Revision: 1
# Processed by: cddbd v1.5.2PL0 Copyright (c) Steve Scherf et al.
# Submitted via: ExactAudioCopy v0.99pb4
#
DISCID=ad0af80c
DTITLE=RJ Helton - real life
DYEAR=2004
DGENRE=Gospel
TTITLE0=Even If
TTITLE1=My Devotion
TTITLE2=Love Song
TTITLE3=All We Need To Know
TTITLE4=Freedom
TTITLE5=Tell me
TTITLE6=Why Don't We pray
TTITLE7=Delicate Child
TTITLE8=Forgive
TTITLE9=Crazy
TTITLE10=Missing Me
TTITLE11=Canto de Amor
EXTD=
EXTT0=
EXTT1=
EXTT2=
EXTT3=
EXTT4=
EXTT5=
EXTT6=
EXTT7=
EXTT8=
EXTT9=
EXTT10=
EXTT11=
PLAYORDER=
